<svg xmlns="http://www.w3.org/2000/svg" width="24" height="24" fill="none" viewBox="0 0 24 24"><path fill="#fff" fill-rule="evenodd" d="M17 6H7C4.79086 6 3 7.79086 3 10V14C3 16.2091 4.79086 18 7 18H17C19.2091 18 21 16.2091 21 14V10C21 7.79086 19.2091 6 17 6ZM7 4C3.68629 4 1 6.68629 1 10V14C1 17.3137 3.68629 20 7 20H17C20.3137 20 23 17.3137 23 14V10C23 6.68629 20.3137 4 17 4H7ZM6 14C6 14.5523 6.44772 15 7 15C7.55228 15 8 14.5523 8 14V13H9C9.55229 13 10 12.5523 10 12C10 11.4477 9.55228 11 9 11H8V10C8 9.44772 7.55229 9 7 9C6.44772 9 6 9.44772 6 10V11H5C4.44772 11 4 11.4477 4 12C4 12.5523 4.44772 13 5 13H6V14ZM18 12C18 12.5523 17.5523 13 17 13C16.4477 13 16 12.5523 16 12C16 11.4477 16.4477 11 17 11C17.5523 11 18 11.4477 18 12ZM20 12C20 13.6569 18.6569 15 17 15C15.3431 15 14 13.6569 14 12C14 10.3431 15.3431 9 17 9C18.6569 9 20 10.3431 20 12Z" clip-rule="evenodd"/></svg>